#!OML:ASF F:\VICON\USERDATA\INSTALL\Justin_Nancy\Justin_Nancy.ASF
:FULLY-SPECIFIED
:DEGREES
111
root 1.66876 17.3089 -11.508 -1.02143 1.48845 6.08969
lowerback 6.69184 -1.0614 -7.05686
upperback 0.598616 -1.90903 0.882408
thorax -2.8739 -0.861857 5.05785
lowerneck -17.2322 -2.9954 -9.71972
upperneck 17.0187 -2.44035 4.28936
head 8.31075 -1.35346 2.73926
rclavicle 1.37161e-014 3.97569e-015
rhumerus -38.0319 -22.326 -72.3166
rradius 24.4991
rwrist 11.0788
rhand -20.6327 15.2528
rfingers 7.12502
rthumb 5.72902 -14.6497
lclavicle 1.37161e-014 3.97569e-015
lhumerus -23.4986 6.31704 86.1466
lradius 32.0012
lwrist -6.7894
lhand -14.1853 30.4554
lfingers 7.12502
lthumb 11.9504 60.0943
rfemur -28.0795 0.183705 12.3787
rtibia 22.9143
rfoot -1.13536 -11.9666
rtoes -10.0606
lfemur 1.03141 -2.00304 -31.6919
ltibia 23.8867
lfoot -17.6898 1.04918
ltoes 0.757852
112
root 1.65315 17.299 -11.3516 -0.877344 1.60346 6.16794
lowerback 6.45868 -1.0508 -7.08092
upperback 0.743651 -1.87613 0.799127
thorax -2.59854 -0.860453 4.97098
lowerneck -17.4129 -3.06865 -9.62703
upperneck 16.8722 -2.5621 4.37751
head 8.30147 -1.39126 2.73679
rclavicle 2.38542e-015 -7.95139e-016
rhumerus -38.1946 -22.6885 -72.324
rradius 24.525
rwrist 11.0653
rhand -20.7409 14.9488
rfingers 7.12502
rthumb 5.62447 -14.9566
lclavicle 2.38542e-015 -7.95139e-016
lhumerus -23.0691 5.38401 86.2325
lradius 32.6588
lwrist -5.78541
lhand -13.7448 30.3467
lfingers 7.12502
lthumb 12.3752 59.9605
rfemur -27.532 0.795501 12.0573
rtibia 19.9892
rfoot -1.40878 -12.1047
rtoes -10.7066
lfemur 1.72609 -1.99736 -31.7463
ltibia 23.4279
lfoot -17.7398 1.09932
ltoes 2.35554
113
root 1.63926 17.2934 -11.1921 -0.888619 1.82905 6.17556
lowerback 6.32074 -1.1183 -7.0384
upperback 0.958338 -1.94598 0.753656
thorax -2.291 -0.913739 4.89574
lowerneck -17.8876 -3.06555 -9.60635
upperneck 17.0088 -2.54038 4.49807
head 8.43024 -1.36443 2.77664
rclavicle 9.69075e-015 1.03368e-014
rhumerus -38.3279 -23.0869 -72.2948
rradius 24.5002
rwrist 11.405
rhand -21.0584 14.8255
rfingers 7.12502
rthumb 5.31799 -15.0877
lclavicle 9.69075e-015 1.03368e-014
lhumerus -22.5744 4.81885 86.2318
lradius 33.2463
lwrist -5.36245
lhand -15.7386 26.0105
lfingers 7.12502
lthumb 10.4524 55.7307
rfemur -26.7692 1.31903 11.7713
rtibia 17.2736
rfoot -2.40253 -12.08
rtoes -11.643
lfemur 2.53464 -2.00562 -31.7219
ltibia 23.1127
lfoot -17.8756 1.17958
ltoes 1.76054
114
root 1.61981 17.2831 -11.0324 -0.869781 2.23099 6.15546
lowerback 6.24269 -1.27078 -7.08217
upperback 0.991352 -2.14363 0.79249
thorax -2.1829 -1.01704 4.97171
lowerneck -17.7688 -3.0112 -9.65608
upperneck 16.9335 -2.4673 4.51691
head 8.37925 -1.33123 2.80022
rclavicle 4.37326e-015 -2.3059e-014
rhumerus -38.644 -23.039 -72.2041
rradius 24.3719
rwrist 11.4022
rhand -21.256 15.2654
rfingers 7.12502
rthumb 5.12721 -14.6525
lclavicle 4.37326e-015 -2.3059e-014
lhumerus -22.5147 4.55966 86.1857
lradius 33.8433
lwrist -5.38627
lhand -14.9773 28.5649
lfingers 7.12502
lthumb 11.1866 58.2466
rfemur -26.0412 1.77887 11.5343
rtibia 14.7928
rfoot -3.32407 -11.9436
rtoes -13.8839
lfemur 3.28775 -2.16061 -31.594
ltibia 22.8757
lfoot -18.0794 1.06547
ltoes 0.575217
115
root 1.60192 17.2581 -10.881 -0.872061 1.96525 6.14131
lowerback 6.21533 -1.19291 -7.14653
upperback 1.01603 -2.03981 0.852917
thorax -2.15158 -0.966692 5.06267
lowerneck -17.5806 -3.03289 -9.69948
upperneck 16.7767 -2.47758 4.39438
head 8.2937 -1.35074 2.76324
rclavicle 7.00716e-015 -7.15625e-015
rhumerus -38.8241 -23.1679 -71.9896
rradius 24.1689
rwrist 11.4758
rhand -21.2226 15.2888
rfingers 7.12502
rthumb 5.15943 -14.6284
lclavicle 7.00716e-015 -7.15625e-015
lhumerus -22.484 4.29238 86.1993
lradius 34.3977
lwrist -5.10282
lhand -15.1785 28.5989
lfingers 7.12502
lthumb 10.9926 58.2911
rfemur -25.566 2.2417 11.5404
rtibia 12.6298
rfoot -4.31527 -11.0802
rtoes -14.9993
lfemur 3.8967 -2.14136 -31.5849
ltibia 22.7575
lfoot -18.2134 1.4489
ltoes -0.737932
116
root 1.58241 17.2371 -10.7287 -0.866988 1.9249 5.98772
lowerback 6.24056 -1.17336 -7.07326
upperback 1.04545 -2.00731 0.954864
thorax -2.13839 -0.952214 5.12608
lowerneck -17.6532 -3.02317 -9.77018
upperneck 16.7028 -2.42862 4.35692
head 8.27868 -1.33389 2.76703
rclavicle -1.72446e-014 -3.18055e-015
rhumerus -39.0206 -23.2633 -71.8295
rradius 24.1692
rwrist 11.4289
rhand -21.1398 14.521
rfingers 7.12502
rthumb 5.23937 -15.3942
lclavicle -1.72446e-014 -3.18055e-015
lhumerus -22.2783 3.96894 86.2483
lradius 34.7251
lwrist -4.81761
lhand -15.2819 28.2083
lfingers 7.12502
lthumb 10.8929 57.9057
rfemur -25.1107 2.60394 11.7196
rtibia 11.0221
rfoot -5.01401 -10.3295
rtoes -16.4925
lfemur 4.44737 -2.34553 -31.4019
ltibia 22.7199
lfoot -18.2433 1.68397
ltoes -2.00522
117
root 1.56632 17.2227 -10.5751 -0.776938 2.00792 5.91282
lowerback 6.2546 -1.2019 -6.97981
upperback 0.951143 -2.04261 0.981081
thorax -2.24189 -0.963714 5.10566
lowerneck -17.6497 -2.97349 -9.7227
upperneck 16.7585 -2.36267 4.30006
head 8.29055 -1.30656 2.74875
rclavicle 1.86361e-014 7.95139e-016
rhumerus -39.3955 -23.0792 -71.7827
rradius 24.1657
rwrist 11.4466
rhand -21.1544 14.3412
rfingers 7.12502
rthumb 5.22529 -15.5744
lclavicle 1.86361e-014 7.95139e-016
lhumerus -22.2688 3.53123 86.2296
lradius 35.1532
lwrist -4.54953
lhand -15.4633 28.7936
lfingers 7.12502
lthumb 10.7179 58.5002
rfemur -24.9334 2.6274 11.9082
rtibia 10.2573
rfoot -5.39132 -9.40249
rtoes -18.1834
lfemur 4.91526 -2.55325 -31.2843
ltibia 22.7322
lfoot -18.229 1.72317
ltoes -3.14431
118
root 1.55149 17.2107 -10.4144 -0.932425 2.03231 5.87285
lowerback 6.34575 -1.23381 -6.92221
upperback 0.978157 -2.08642 1.00746
thorax -2.25974 -0.986014 5.10644
lowerneck -17.6264 -2.90443 -9.72806
upperneck 16.8314 -2.25839 4.24407
head 8.30283 -1.26502 2.7444
rclavicle -5.61567e-015 -1.59028e-015
rhumerus -39.5893 -23.1306 -71.651
rradius 23.9799
rwrist 11.8302
rhand -21.1383 15.0767
rfingers 7.12502
rthumb 5.24081 -14.8384
lclavicle -5.61567e-015 -1.59028e-015
lhumerus -22.2612 3.29542 86.1931
lradius 35.5214
lwrist -4.31654
lhand -15.5545 28.8062
lfingers 7.12502
lthumb 10.63 58.5174
rfemur -24.6427 2.45612 12.2273
rtibia 10.198
rfoot -5.47869 -8.45392
rtoes -19.5568
lfemur 5.62946 -2.82815 -31.2471
ltibia 22.8801
lfoot -18.2612 1.85481
ltoes -4.65094
119
root 1.53784 17.1957 -10.2497 -1.22437 1.94595 5.95861
lowerback 6.40132 -1.17267 -6.9779
upperback 1.16093 -2.00819 0.959129
thorax -2.11113 -0.957573 5.07973
lowerneck -17.6775 -2.9017 -9.72625
upperneck 16.87 -2.25318 4.25902
head 8.32453 -1.2611 2.75008
rclavicle 1.85864e-014 1.66979e-014
rhumerus -39.7031 -23.2941 -71.6517
rradius 23.9241
rwrist 11.9379
rhand -21.3649 15.0392
rfingers 7.12502
rthumb 5.02205 -14.8812
lclavicle 1.85864e-014 1.66979e-014
lhumerus -22.0175 3.15906 86.1247
lradius 35.7191
lwrist -4.36113
lhand -15.361 29.1531
lfingers 7.12502
lthumb 10.8166 58.8546
rfemur -24.3817 1.89354 12.6506
rtibia 10.6793
rfoot -4.94013 -7.37822
rtoes -20.8628
lfemur 6.41606 -3.19712 -31.4139
ltibia 23.2011
lfoot -18.2591 2.09866
ltoes -6.6689
120
root 1.52272 17.1785 -10.0958 -1.27373 1.92673 5.95169
lowerback 6.34465 -1.1491 -6.95971
upperback 1.21999 -1.96918 0.968835
thorax -2.02365 -0.943276 5.07372
lowerneck -17.5022 -2.93465 -9.67726
upperneck 16.8044 -2.2896 4.06515
head 8.2722 -1.29549 2.67138
rclavicle 3.01656e-014 7.15625e-015
rhumerus -39.8568 -23.3398 -71.5837
rradius 23.8849
rwrist 12.0539
rhand -21.5261 14.8461
rfingers 7.12502
rthumb 4.86633 -15.078
lclavicle 3.01656e-014 7.15625e-015
lhumerus -21.9507 3.04408 86.1094
lradius 36.0192
lwrist -4.55045
lhand -15.4408 30.197
lfingers 7.12502
lthumb 10.7396 59.9025
rfemur -24.6633 1.11731 13.2169
rtibia 11.7248
rfoot -3.91348 -6.2442
rtoes -20.3896
lfemur 6.79761 -3.64389 -31.4375
ltibia 23.6179
lfoot -18.0522 2.15317
ltoes -7.9812
121
root 1.50561 17.1712 -9.94 -1.20569 1.89282 5.86611
lowerback 6.26302 -1.17994 -6.85875
upperback 1.1609 -1.99873 0.998008
thorax -2.03795 -0.95639 5.04771
lowerneck -17.4145 -2.8635 -9.70279
upperneck 16.8968 -2.18175 3.99758
head 8.27992 -1.25577 2.66717
rclavicle -8.15017e-015 1.66979e-014
rhumerus -39.9979 -23.5126 -71.3755
rradius 23.6046
rwrist 12.5139
rhand -21.3084 15.0321
rfingers 7.12502
rthumb 5.07656 -14.8871
lclavicle -8.15017e-015 1.66979e-014
lhumerus -21.9898 2.96032 86.0352
lradius 36.2873
lwrist -4.49293
lhand -16.8381 28.4757
lfingers 7.12502
lthumb 9.3916 58.2465
rfemur -25.0916 0.403942 13.8561
rtibia 13.0407
rfoot -2.97371 -5.28011
rtoes -18.9518
lfemur 6.93085 -3.88083 -31.3041
ltibia 24.1582
lfoot -17.836 1.81043
ltoes -7.89989
